<svg xmlns="http://www.w3.org/2000/svg" viewBox="0 0 34.09 34.12"><g id="Layer_2" data-name="Layer 2"><g id="Layer_1-2" data-name="Layer 1"><g id="Group_1228" data-name="Group 1228"><path id="Path_754" data-name="Path 754" d="M23.09,6.82c.74.33,1.45.64,2.15,1a4.43,4.43,0,0,1,2.27,5.85h0c-.16.39-.33.78-.52,1.22a1.78,1.78,0,0,1,1.79.66,2.14,2.14,0,0,1,.34,1,1.33,1.33,0,0,1-.76,1.33,8.18,8.18,0,0,1-1.55.39,5.57,5.57,0,0,1-2.48,3.47.32.32,0,0,0-.13.24c0,.41,0,.82,0,1.25l3.22.9,4.52,1.26a2.76,2.76,0,0,1,2.16,2.85v5.12c0,.57-.18.75-.73.75H9.54c-.57,0-.74-.18-.74-.77V28.2a2.76,2.76,0,0,1,2.13-2.8l7.47-2.07c.24-.06.28-.17.3-.4A1.58,1.58,0,0,0,18,21.26a5,5,0,0,1-1.9-3.1h-.67a1.65,1.65,0,0,1,0-3.3h.5c-.27-.55-.51-1-.78-1.54a.33.33,0,0,0-.25-.11c-1.56,0-3.12,0-4.67,0a.89.89,0,0,0-.39.12l-6,3c-.09,0-.17.11-.25.11a1.36,1.36,0,0,1-.6-.07.47.47,0,0,1-.16-.61l.72-2.18c0-.11.06-.22.1-.34a12.22,12.22,0,0,1-1.35-.08A2.7,2.7,0,0,1,0,10.47Q0,6.6,0,2.74A2.71,2.71,0,0,1,2.72,0H20.34a2.71,2.71,0,0,1,2.74,2.71v0c0,1.24,0,2.48,0,3.72ZM22,6.63c0-1.36,0-2.71,0-4.06A1.59,1.59,0,0,0,20.3,1.11H2.78A1.63,1.63,0,0,0,1.1,2.69v.09c0,2.56,0,5.11,0,7.67a1.65,1.65,0,0,0,1.61,1.66H4.2c.65,0,.86.3.65.92s-.39,1.19-.61,1.83l.37-.17L9.4,12.3a1.79,1.79,0,0,1,.79-.18c1.37,0,2.74,0,4.12,0h.4a3.78,3.78,0,0,1,.47-2.21H12.12V8.81H15a3.32,3.32,0,0,0,2-.35c.35-.23.72-.44,1.09-.65L18,7.7H12.11V6.63ZM28.61,33V29.18H29.7V33H33V28.23a1.65,1.65,0,0,0-1.33-1.76c-2.41-.68-4.82-1.33-7.22-2-.49-.14-.84-.11-1.1.32a.6.6,0,0,0-.08.39,4.45,4.45,0,0,0,.28.85.87.87,0,0,1-.14.95c-.22.29-.4.62-.62.91a.5.5,0,0,0-.06.56q.44,1,.81,2a1.23,1.23,0,0,1,0,.63c-.1.63-.24,1.26-.36,1.92Zm-14.3-3.83V33h5.36c-.13-.66-.27-1.3-.37-1.94a1.07,1.07,0,0,1,.05-.56c.25-.7.53-1.39.82-2.08a.45.45,0,0,0-.05-.53c-.25-.34-.46-.7-.71-1.05a.72.72,0,0,1-.1-.71,8.62,8.62,0,0,0,.32-1,.51.51,0,0,0-.08-.38.73.73,0,0,0-1-.36l-.1.05a.19.19,0,0,1-.1,0l-7.17,2a1.65,1.65,0,0,0-1.3,1.71v4.5c0,.1,0,.2,0,.3H13.2V29.18ZM25.09,13.5a5.56,5.56,0,0,1-7.3,0A4.15,4.15,0,0,0,17,15.83a11.45,11.45,0,0,1,0,1.31,4.41,4.41,0,0,0,4,4.31,4.35,4.35,0,0,0,4.66-3.33c.16-.74.07-1.53.16-2.29a4.18,4.18,0,0,0-.76-2.33Zm-8.59.12.5-1c.29-.57.57-.64,1.08-.27.29.22.58.45.88.65a4.36,4.36,0,0,0,3.77.57,5.85,5.85,0,0,0,1.92-1.11c.7-.53.92-.48,1.3.3l.39.78a3.27,3.27,0,0,0-.86-4.3A8,8,0,0,0,21.8,7.74a4.3,4.3,0,0,0-2.68.66,3.75,3.75,0,0,1,2.21,1.77l-.88.59c-.13-.17-.24-.33-.37-.48a2.42,2.42,0,0,0-2.53-.83,2.24,2.24,0,0,0-1.72,1.82,3.36,3.36,0,0,0,.67,2.35Zm5,19.4a1,1,0,0,1,.24,0c.32.06.43-.09.48-.39.07-.5.19-1,.29-1.48a.92.92,0,0,0,0-.37c-.26-.68-.54-1.36-.82-2a.25.25,0,0,0-.2-.12c-.08,0-.21.06-.23.12-.44,1.11-1.14,2.17-.6,3.45a.94.94,0,0,1,0,.16c.13.67.13.67.79.67ZM19.8,22.31c0,.28,0,.52,0,.75s0,.34.06.43c.51.53,1,1.05,1.59,1.6L23,23.53a.42.42,0,0,0,.1-.17V22.31a5.62,5.62,0,0,1-3.3,0Zm.79,3.52a.65.65,0,0,0,.05.87,4.35,4.35,0,0,1,.38.57.47.47,0,0,0,.84,0l.42-.63c.25-.38.25-.38,0-.8-.84.71-.84.71-1.67,0ZM15.93,16c-.39,0-.81-.12-1,.3a.71.71,0,0,0,0,.57c.24.35.62.21,1,.21Zm11,0v1.08c.36,0,.75.13,1-.24a.7.7,0,0,0,0-.6c-.22-.37-.61-.23-1-.23Z" fill="#162f68"/><path id="Path_755" data-name="Path 755" d="M3.87,4.93c.42,0,.93.15,1.23,0s.34-.71.49-1.1S5.9,3,6.05,2.64a.58.58,0,0,1,.69-.41.59.59,0,0,1,.4.41c.27.68.55,1.35.81,2A.37.37,0,0,0,8.36,5c.66,0,1.3,0,2,0a.57.57,0,0,1,.42,1c-.54.54-1.08,1.09-1.63,1.62A.42.42,0,0,0,9,8.16c.28.65.54,1.31.8,2a.58.58,0,0,1-.1.75.59.59,0,0,1-.76,0L6.86,9.6a.44.44,0,0,0-.53,0c-.69.43-1.39.84-2.08,1.26a.58.58,0,0,1-.76,0,.59.59,0,0,1-.1-.75c.27-.67.53-1.34.81-2a.38.38,0,0,0-.09-.48C3.55,7.11,3,6.56,2.47,6c-.2-.2-.35-.4-.23-.7A.59.59,0,0,1,2.91,5h1ZM5,9.05l.06,0c.37-.22.74-.42,1.09-.66a.74.74,0,0,1,.89,0c.35.24.72.44,1.17.7-.16-.41-.27-.73-.42-1A.7.7,0,0,1,8,7.17c.37-.33.72-.69,1.08-1a5.71,5.71,0,0,0-1.24-.08.64.64,0,0,1-.7-.47C7,5.17,6.8,4.75,6.6,4.25c-.2.51-.38.93-.54,1.35a.62.62,0,0,1-.68.46H4.17l0,.08,1,1c.47.47.48.52.23,1.14-.12.28-.22.55-.33.82Z" fill="#162f68"/><path id="Path_756" data-name="Path 756" d="M16.53,2.21h3.64c.54,0,.72.19.72.73V4.86c0,.45-.2.65-.65.65H12.75c-.45,0-.65-.2-.65-.65,0-.67,0-1.33,0-2,0-.45.2-.65.65-.66ZM13.21,4.39h6.57V3.33H13.21Z" fill="#162f68"/></g></g></g></svg>