<svg xmlns="http://www.w3.org/2000/svg" viewBox="0 0 35.78 45.19"><g id="Layer_2" data-name="Layer 2"><g id="Layer_1-2" data-name="Layer 1"><g id="Group_1209" data-name="Group 1209"><path id="Path_723" data-name="Path 723" d="M25.38,0l.1.07a2.76,2.76,0,0,1,2,2.17L35.41,31.5a9.37,9.37,0,0,1,.35,1.57,2.85,2.85,0,0,1-1.89,3c-1.63.57-3.26,1.13-4.9,1.66-.37.11-.47.29-.44.7s0,.91,0,1.36-.24.72-.59.72-.58-.28-.59-.72,0-.94,0-1.46a2.61,2.61,0,0,0-.35.08L11.88,43.58c-1.77.6-3.08-.19-3.61-2.18l-3-11.17c0-.15-.09-.31-.12-.46A.69.69,0,0,1,5.51,29a.57.57,0,0,1,.72.36.29.29,0,0,1,0,.09c.17.53.3,1.07.45,1.6Q8.08,36.1,9.45,41.17a1.47,1.47,0,0,0,1.06,1.22,1.79,1.79,0,0,0,.92-.07c2.38-.79,4.75-1.6,7.12-2.4l14.67-5,.23-.08a1.64,1.64,0,0,0,1.08-2.06l-.05-.14-2.19-8.09q-3-10.9-5.9-21.79c-.19-.7-.49-1.25-1.17-1.39a2,2,0,0,0-.81.07c-.36.09-.7.24-1.05.35a.6.6,0,0,1-.77-.33.29.29,0,0,1,0-.09A.68.68,0,0,1,23,.53L24.51,0Z" fill="#162f68"/><path id="Path_724" data-name="Path 724" d="M7.89,7.09v7.12a6.35,6.35,0,0,1,0,1,2.83,2.83,0,0,1-2,2.51A2.47,2.47,0,0,1,3,16.62a.64.64,0,0,0-.24-.22c.28,1.05.56,2.1.85,3.15l1.91,7a1.6,1.6,0,0,0,0,.21.71.71,0,0,1-.4.88c-.31.1-.62-.08-.73-.49Q4.1,26,3.8,24.88c-.82-3-1.63-6-2.45-9,0-.1-.06-.2-.12-.41,0,.21,0,.31,0,.41V42.12a1.52,1.52,0,0,0,1.58,1.74h23a1.48,1.48,0,0,0,1.57-1.38c.1-.44.36-.65.72-.57a.7.7,0,0,1,.45.85,2.78,2.78,0,0,1-2.42,2.43H2.73A2.71,2.71,0,0,1,0,42.75a3.65,3.65,0,0,1,0-.66V11.38a8.86,8.86,0,0,1,0-1.15A2.77,2.77,0,0,1,2,7.69c.31-.1.43-.23.44-.62a4.24,4.24,0,0,1,2.81-4.2A3.62,3.62,0,0,1,9.53,4.8c.15.28.29.2.48.14L20.29,1.45a2.8,2.8,0,0,1,.41-.13.59.59,0,0,1,.72.42v0a.66.66,0,0,1-.41.83c-.73.27-1.47.51-2.21.76L8.11,7ZM8.5,5.46a2.54,2.54,0,0,0-2-1.39C4.84,3.94,3.61,5.24,3.6,7.13s0,4,0,6c0,.57,0,1.15,0,1.72a1.57,1.57,0,0,0,1.54,1.6,2,2,0,0,0,.35,0,1.73,1.73,0,0,0,1.2-1.79q0-3.42,0-6.84c0-.25,0-.5,0-.75s-.18-.53-.48-.52-.45.2-.47.53v6.4c0,.56-.21.85-.59.86s-.6-.28-.6-.85c0-2.13,0-4.26,0-6.4a1.77,1.77,0,0,1,.93-1.7,1.49,1.49,0,0,1,1.8.25.47.47,0,0,0,.34.13,8.63,8.63,0,0,0,.86-.28ZM2.38,9a1.5,1.5,0,0,0-1.16,1.78,2.41,2.41,0,0,0,.08.25c.31,1.17.63,2.33.94,3.5l.14.33Z" fill="#162f68"/><path id="Path_725" data-name="Path 725" d="M14.9,10.83a7.48,7.48,0,0,1,1.15.12.74.74,0,0,1,.56.89s0,0,0,.06a.66.66,0,0,1-.68.63.47.47,0,0,1-.17,0,1.79,1.79,0,0,0-1.3.2.71.71,0,0,0-.42.76.68.68,0,0,0,.59.67c.49.07,1,.11,1.48.17,2,.26,2.53,3.05,1.74,4.19a1.48,1.48,0,0,1-.31.39.65.65,0,0,0-.29.79.78.78,0,0,1-.53.87.69.69,0,0,1-.86-.45v0c-.1-.29-.23-.33-.48-.37a4,4,0,0,1-1.26-.43.84.84,0,0,1-.3-1.1.58.58,0,0,1,.68-.45.64.64,0,0,1,.26.13,1.37,1.37,0,0,0,1.43.12.84.84,0,0,0,.56-.81,1.1,1.1,0,0,0-.55-1.08,3.21,3.21,0,0,0-.8-.19c-.4-.06-.81-.08-1.21-.17A2,2,0,0,1,12.63,14a2.31,2.31,0,0,1,.63-2.31.56.56,0,0,0,.15-.41c-.09-.64.07-1,.49-1.18s.73.09.95.66A.22.22,0,0,0,14.9,10.83Z" fill="#162f68"/><path id="Path_726" data-name="Path 726" d="M11.7,33.66a.59.59,0,0,1-.64-.55h0a.62.62,0,0,1,.42-.74l2.18-.75L28.14,26.7l.19-.06a.58.58,0,0,1,.79.26.61.61,0,0,1,.05.12.69.69,0,0,1-.41.87l-.09,0-5.86,2L12.13,33.53C12,33.59,11.8,33.63,11.7,33.66Z" fill="#162f68"/><path id="Path_727" data-name="Path 727" d="M27.21,19.93c0,.43-.28.59-.6.7L22.4,22.06,10.26,26.18l-.34.11a.61.61,0,0,1-.8-.32.38.38,0,0,1,0-.1A.7.7,0,0,1,9.58,25l1.84-.62,14.74-5a2.4,2.4,0,0,1,.38-.12.61.61,0,0,1,.67.54A.24.24,0,0,1,27.21,19.93Z" fill="#162f68"/><path id="Path_728" data-name="Path 728" d="M27.54,22.92a.6.6,0,0,1,.65.5.63.63,0,0,1-.33.76,6,6,0,0,1-.71.26l-16,5.44-.26.08a.58.58,0,0,1-.76-.34.29.29,0,0,1,0-.09.67.67,0,0,1,.43-.84h0q2.16-.75,4.32-1.47L27,23.08Z" fill="#162f68"/><path id="Path_729" data-name="Path 729" d="M12.65,37.33a.6.6,0,0,1-.59-.54.63.63,0,0,1,.4-.76c.51-.19,1-.36,1.54-.53l15-5.11a2.4,2.4,0,0,1,.38-.12.59.59,0,0,1,.74.38s0,0,0,.06a.67.67,0,0,1-.42.82c-.26.11-.52.19-.78.28l-15.91,5.4Z" fill="#162f68"/><path id="Path_730" data-name="Path 730" d="M2.38,9V14.9c-.07-.17-.11-.25-.14-.34" fill="#162f68"/></g></g></g></svg>