<svg xmlns="http://www.w3.org/2000/svg" viewBox="0 0 196.95 191.01"><g id="Layer_2" data-name="Layer 2"><g id="Layer_1-2" data-name="Layer 1"><g id="Layer_2-2" data-name="Layer 2"><g id="Layer_1-2-2" data-name="Layer 1-2"><path d="M133.8,58.52H96.45A36.12,36.12,0,1,1,86.1,50.15v-35a68.93,68.93,0,1,0,47.7,43.41Z" fill="#162f68"/><rect x="95.83" y="18.78" width="32.87" height="32.87" fill="#162f68"/><rect x="128.7" width="18.78" height="18.78" fill="#162f68"/><rect x="163.27" y="14.77" width="10" height="10" fill="#162f68"/><rect x="157.48" y="37.63" width="11.84" height="11.84" fill="#6393ff"/><rect x="138.7" y="49.47" width="18.78" height="18.78" fill="#6393ff"/><rect x="146.87" y="18.17" width="6.74" height="6.8" fill="#6393ff"/><rect x="166.53" y="56.95" width="8.85" height="8.85" fill="#6393ff"/><rect x="186.4" y="50.49" width="10.55" height="10.62" fill="#162f68"/><rect x="181.1" y="61.04" width="5.31" height="5.31" fill="#162f68"/><rect x="151.5" y="80.77" width="9.93" height="9.93" fill="#6393ff"/><rect x="178.17" y="83.7" width="7.55" height="7.55" fill="#6393ff"/><path d="M107.67,63.69a38,38,0,0,1,6.47,12.86,42.43,42.43,0,0,1-2.45,29.06c-.55,1.09-1.09,2.24-1.77,3.33s-1.29,2.18-2,3.2-1.5,2-2.32,3l-2.51,2.79-2.79,2.52c-1,.82-2,1.57-3,2.31s-2.11,1.37-3.19,2-2.25,1.15-3.34,1.76a42.82,42.82,0,0,1-14.42,3.82A40.87,40.87,0,0,1,61.68,129a36.47,36.47,0,0,1-12.87-6.46,47.82,47.82,0,0,0,26.88,3.06,43.51,43.51,0,0,0,35.11-35A49.19,49.19,0,0,0,107.67,63.69Z" fill="#fff"/><path d="M57.39,24.77a62.23,62.23,0,0,0-16.6,7.35A59.09,59.09,0,0,0,27.38,43.75,56.92,56.92,0,0,0,14,75.53l-.21,4.36c0,1.42.07,2.92.14,4.35s.34,2.86.47,4.36.55,2.85.82,4.28a57.73,57.73,0,0,0,6.4,16.27A60.25,60.25,0,0,0,47.79,133.1a52,52,0,0,1-16.94-7.83,54.83,54.83,0,0,1-13.34-13.54,55.51,55.51,0,0,1-8-17.49l-.54-2.38c-.14-.81-.41-1.56-.48-2.38-.2-1.63-.47-3.2-.61-4.83s-.13-3.2-.2-4.83L7.85,75l.68-4.84c.34-1.56.68-3.19,1-4.76s1-3.06,1.43-4.63,1.23-3,1.84-4.49A55,55,0,0,1,39.29,29.53,50.85,50.85,0,0,1,57.39,24.77Z" fill="#fff"/></g></g><path d="M26.65,189.6a7.61,7.61,0,0,1-3.31-4.2,22.46,22.46,0,0,1-1-7.36,22.72,22.72,0,0,1,1-7.4,8.07,8.07,0,0,1,3.31-4.32,11.41,11.41,0,0,1,6.12-1.41,11.4,11.4,0,0,1,6.11,1.41,7.85,7.85,0,0,1,3.31,4.32,22.45,22.45,0,0,1,1,7.4,23.21,23.21,0,0,1-1,7.24A8.14,8.14,0,0,1,39,189.55a11.58,11.58,0,0,1-6.17,1.4A11.94,11.94,0,0,1,26.65,189.6Zm9.2-3.92a4.59,4.59,0,0,0,1.57-2.7,22.94,22.94,0,0,0,.45-5,20.22,20.22,0,0,0-.5-5,4.82,4.82,0,0,0-1.63-2.75,4.76,4.76,0,0,0-3.09-.89,4.73,4.73,0,0,0-3.08.89A5.36,5.36,0,0,0,27.94,173a19.75,19.75,0,0,0-.5,5,21.44,21.44,0,0,0,.39,4.71,4.84,4.84,0,0,0,1.51,2.75,5,5,0,0,0,3.26,1A4.63,4.63,0,0,0,35.85,185.68Z" fill="#162f68"/><path d="M47.08,172H52v2a20.27,20.27,0,0,1,6-2.41v5a51.13,51.13,0,0,0-5.16,1.29l-.73.28v12.4H47.13L47.08,172Z" fill="#162f68"/><path d="M62.28,190.61l-1.4-.16V164.58h4.94v8a17.64,17.64,0,0,1,2.3-.79,7.74,7.74,0,0,1,2.07-.22c2.47,0,4.27.72,5.39,2.24s1.74,4,1.74,7.41a14.48,14.48,0,0,1-.9,5.72,5.52,5.52,0,0,1-2.8,3,11.93,11.93,0,0,1-5.17.95A49.2,49.2,0,0,1,62.28,190.61Zm9.09-5.27c.62-.79.9-2.13.9-4.1a7.78,7.78,0,0,0-.79-4A2.84,2.84,0,0,0,69,176a12,12,0,0,0-3.09.51v9.88a23,23,0,0,0,2.36.16A3.82,3.82,0,0,0,71.37,185.34Z" fill="#162f68"/><path d="M81,164.63H86v5H81ZM81,172H86V190.5H81Z" fill="#162f68"/><path d="M93.54,190.28a3.78,3.78,0,0,1-1.69-2.19,14.07,14.07,0,0,1-.5-4.21v-7.69H89.16V172h2.19v-5.1h4.94V172h4.54v4.21H96.29v7.57a5.83,5.83,0,0,0,.28,2.08c.17.45.61.62,1.29.62l2.8-.06.23,4a21.68,21.68,0,0,1-2.3.44,16,16,0,0,1-1.69.12A7.48,7.48,0,0,1,93.54,190.28Z" fill="#162f68"/><path d="M112.67,165.31h9.26c5.95,0,9,2.91,9,8.75,0,3-.79,5.22-2.3,6.79s-3.76,2.36-6.68,2.36h-4.15v7.35h-5.11Zm9.2,13.52c2.53,0,3.82-1.57,3.82-4.71a4.84,4.84,0,0,0-.9-3.31,3.73,3.73,0,0,0-2.92-1h-4.09v9.09h4.09Z" fill="#162f68"/><path d="M137.7,189.6a7.61,7.61,0,0,1-3.31-4.2,22.2,22.2,0,0,1-1-7.36,22.45,22.45,0,0,1,1-7.4,8.07,8.07,0,0,1,3.31-4.32,14,14,0,0,1,12.23,0,7.85,7.85,0,0,1,3.31,4.32,22.45,22.45,0,0,1,1,7.4,23.21,23.21,0,0,1-.95,7.24,8.19,8.19,0,0,1-3.26,4.27,11.58,11.58,0,0,1-6.17,1.4A11.94,11.94,0,0,1,137.7,189.6Zm9.2-3.92a4.59,4.59,0,0,0,1.57-2.7,22.94,22.94,0,0,0,.45-5,20.22,20.22,0,0,0-.5-5,4.87,4.87,0,0,0-1.63-2.75,5.79,5.79,0,0,0-6.17,0A5.36,5.36,0,0,0,139,173a19.68,19.68,0,0,0-.51,5,21.35,21.35,0,0,0,.4,4.71,4.84,4.84,0,0,0,1.51,2.75,5,5,0,0,0,3.26,1A4.63,4.63,0,0,0,146.9,185.68Z" fill="#162f68"/><path d="M158.85,190.05l-1.34-.28.5-4a60.77,60.77,0,0,0,7.58.67c2.63,0,3.92-1.06,3.92-3.25a2.17,2.17,0,0,0-1-2A18.63,18.63,0,0,0,165,179.9a20.29,20.29,0,0,1-4.61-1.8,6.59,6.59,0,0,1-2.46-2.36,8,8,0,0,1,1.45-9,9.71,9.71,0,0,1,6.34-1.91,22.8,22.8,0,0,1,3.32.23c1.12.11,2.8.39,5,.78l-.39,4c-3.37-.39-5.84-.62-7.35-.62-2.7,0-4,.9-4,2.7a1.9,1.9,0,0,0,.67,1.51,4.9,4.9,0,0,0,1.68,1c.68.22,1.8.61,3.37,1.12a21.67,21.67,0,0,1,4,1.68,5.3,5.3,0,0,1,2,2.19,8.28,8.28,0,0,1,.62,3.37,7.44,7.44,0,0,1-2.36,6,9.19,9.19,0,0,1-6.34,2.07A24.19,24.19,0,0,1,158.85,190.05Z" fill="#162f68"/></g></g></svg>