<svg xmlns="http://www.w3.org/2000/svg" viewBox="0 0 35.42 35.45"><g id="Layer_2" data-name="Layer 2"><g id="Layer_1-2" data-name="Layer 1"><g id="Group_1616" data-name="Group 1616"><path id="Path_767" data-name="Path 767" d="M12.59,2.17H3.4c-.9,0-1.22.31-1.22,1.2q0,14.36,0,28.71c0,.9.32,1.2,1.3,1.2H14.61a5.56,5.56,0,0,1,.71,0,1.05,1.05,0,0,1,.09,2.08,3.35,3.35,0,0,1-.71,0H3.5A3.13,3.13,0,0,1,0,32.69,2.81,2.81,0,0,1,0,32V3.41A3.09,3.09,0,0,1,2.8,0a3,3,0,0,1,.6,0H32.05a3.1,3.1,0,0,1,3.36,2.8,5,5,0,0,1,0,.55q0,14.36,0,28.72a3.1,3.1,0,0,1-2.82,3.35,2.44,2.44,0,0,1-.54,0H20.63a2.46,2.46,0,0,1-.71-.08,1,1,0,0,1,.13-2,5.27,5.27,0,0,1,.79,0h11c1.17,0,1.43-.26,1.43-1.44V3.56c0-1.15-.25-1.39-1.4-1.39h-9c0,.78,0,1.53,0,2.28,0,.3,0,.71-.2.88a1.76,1.76,0,0,1-1.09.46.89.89,0,0,1-.84-.94v0c0-.84,0-1.67,0-2.57H14.79v11c.64-.41,1.19-.76,1.73-1.13a1.91,1.91,0,0,1,2.39,0c.54.37,1.11.71,1.79,1.15V10.08c0-.88.35-1.32,1-1.33s1.1.45,1.1,1.3c0,1.22,0,2.44,0,3.66a1.81,1.81,0,0,1-.93,1.73,1.78,1.78,0,0,1-2-.17c-.57-.39-1.18-.74-1.74-1.15a.67.67,0,0,0-.9,0c-.56.4-1.16.76-1.73,1.15A1.82,1.82,0,0,1,13,15a1.85,1.85,0,0,1-.39-1.3V3.14C12.59,2.85,12.59,2.56,12.59,2.17Z" fill="#162f68"/><path id="Path_768" data-name="Path 768" d="M17.42,24.93c0,1.22,0,2.44,0,3.66a2.91,2.91,0,0,1-2.84,3h-.1q-3.66.06-7.32,0a2.92,2.92,0,0,1-2.94-2.9v-.1q0-3.66,0-7.32a2.93,2.93,0,0,1,2.84-3h.22q3.56,0,7.11,0a2.91,2.91,0,0,1,3,2.77,1,1,0,0,1,0,.25C17.43,22.48,17.42,23.7,17.42,24.93Zm-11,0c0,1.14,0,2.3,0,3.44,0,.77.28,1.05,1,1.06q3.4,0,6.81,0c.78,0,1-.27,1-1q0-3.48,0-7c0-.79-.25-1-1-1.05H7.43c-.8,0-1.06.27-1.06,1.09C6.36,22.63,6.37,23.78,6.37,24.93Z" fill="#162f68"/><path id="Path_769" data-name="Path 769" d="M10.81,24.16c-.72,0-1.44,0-2.15,0A1.07,1.07,0,1,1,8.48,22h.14q2.22,0,4.44,0a1,1,0,0,1,1.08,1v.12a1,1,0,0,1-1,1H13C12.28,24.17,11.55,24.16,10.81,24.16Z" fill="#162f68"/><path id="Path_770" data-name="Path 770" d="M10.85,27.77c-.74,0-1.48,0-2.22,0a1,1,0,0,1-1.12-1,.25.25,0,0,1,0-.08,1,1,0,0,1,1-1.09h.12q2.25-.06,4.5,0a1.06,1.06,0,1,1,0,2.12h0c-.74,0-1.47,0-2.21,0Z" fill="#162f68"/></g></g></g></svg>