<svg xmlns="http://www.w3.org/2000/svg" viewBox="0 0 33.61 35.21"><g id="Layer_2" data-name="Layer 2"><g id="Layer_1-2" data-name="Layer 1"><g id="Group_1229" data-name="Group 1229"><path id="Path_746" data-name="Path 746" d="M6.57,35.2a2.27,2.27,0,0,1-1-.9L.4,27a1.33,1.33,0,0,1,0-1.89,1.41,1.41,0,0,1,.37-.27l5.08-3.59c1-.73,1.51-.67,2.35.31l.3-.2c1-.73,2.09-1.45,3.12-2.2a4.21,4.21,0,0,1,3.31-.76c2.32.38,4.63.79,7,1.06a2.42,2.42,0,0,1,1.86,3.84s0,0,0,.06l.05,0c.69.21,1.08-.07,1.45-.66.8-1.26,1.68-2.46,2.53-3.68a2.19,2.19,0,0,1,3-.64,2.22,2.22,0,0,1,.93,1.3.42.42,0,0,0,.31.35,2.07,2.07,0,0,1,1.54,1.68,2.16,2.16,0,0,1-.87,2.21c-.57.43-1.16.83-1.74,1.24-.9.63-1.79,1.27-2.7,1.88a5.37,5.37,0,0,1-3.07.94c-2.33,0-4.65,0-7-.07A10,10,0,0,0,13.49,29l.11.21A1.27,1.27,0,0,1,13.27,31l0,0L7.7,34.93l-.5.28Zm6.27-7.06a11.7,11.7,0,0,1,5.64-1.25c2.07.05,4.14,0,6.22.09a5.33,5.33,0,0,0,3.4-1.05c.83-.61,1.69-1.19,2.53-1.78.48-.35,1-.68,1.45-1a1.14,1.14,0,0,0,.45-1.28,1.08,1.08,0,0,0-.91-.83,1.24,1.24,0,0,0-1,.25c-1.38,1-2.77,1.95-4.15,2.94a1.92,1.92,0,0,1-1.39.35c-1.24-.13-2.48-.23-3.73-.34L19,24a.52.52,0,0,1-.52-.52h0A.53.53,0,0,1,19,23h0l.24,0c.79.06,1.58.14,2.37.19A1.34,1.34,0,0,0,23.16,22s0,0,0-.06a1.36,1.36,0,0,0-1.25-1.46c-2.37-.37-4.75-.71-7.12-1.1a3.33,3.33,0,0,0-2.69.63c-1,.75-2,1.45-3.08,2.18a3.11,3.11,0,0,0-.25.2Zm-2.22,3.45L4.73,23.27,1.2,25.77a.31.31,0,0,0-.11.41l0,.07L1.7,27q2.42,3.42,4.84,6.83c.27.39.31.39.7.12l1.07-.75Zm.84-.6,1-.74c.33-.23.34-.31.11-.64l-1.94-2.75Q9,24.45,7.25,22c-.11-.16-.24-.33-.44-.2-.42.27-.82.57-1.24.86ZM26.3,23l0,.05,4.37-3.06a1.15,1.15,0,0,0-1.39-.84,1.17,1.17,0,0,0-.65.44c-.8,1.13-1.58,2.27-2.37,3.41Z" fill="#162f68"/><path id="Path_747" data-name="Path 747" d="M19.24,1h-4.4c-.43,0-.58.15-.58.57V15.36c0,.43.15.57.62.57h5.67a.5.5,0,0,1,.47.53.48.48,0,0,1-.43.46,1.27,1.27,0,0,1-.34,0H14.89a1.49,1.49,0,0,1-1.66-1.32.92.92,0,0,1,0-.33V1.63A1.47,1.47,0,0,1,14.56,0h14a1.46,1.46,0,0,1,1.6,1.33,1.22,1.22,0,0,1,0,.27q0,6.87,0,13.74A1.47,1.47,0,0,1,28.82,17H23.09a1.32,1.32,0,0,1-.34,0,.5.5,0,0,1,.06-1,2.44,2.44,0,0,1,.38,0h5.26c.56,0,.68-.12.68-.69V1.7c0-.55-.12-.66-.66-.66H24.15c0,.37,0,.73,0,1.09,0,.15,0,.34-.1.42a.84.84,0,0,1-.52.22.43.43,0,0,1-.41-.45v0c0-.4,0-.8,0-1.23H20.3V6.31c.3-.2.57-.36.82-.54a.92.92,0,0,1,1.15,0c.26.18.53.34.85.55V4.83c0-.42.18-.63.5-.64s.53.22.53.62c0,.59,0,1.17,0,1.75a.88.88,0,0,1-.45.84.85.85,0,0,1-1-.09c-.28-.19-.56-.35-.83-.55a.32.32,0,0,0-.43,0c-.27.19-.56.36-.83.55a.87.87,0,0,1-1.22-.14.88.88,0,0,1-.19-.62V1Z" fill="#162f68"/><path id="Path_748" data-name="Path 748" d="M21.55,11.93c0,.59,0,1.17,0,1.76a1.4,1.4,0,0,1-1.37,1.43h0q-1.75,0-3.51,0a1.4,1.4,0,0,1-1.4-1.4v0c0-1.17,0-2.33,0-3.5a1.4,1.4,0,0,1,1.35-1.45H20.1a1.4,1.4,0,0,1,1.45,1.33.24.24,0,0,1,0,.12C21.56,10.77,21.55,11.35,21.55,11.93Zm-5.29,0v1.65c0,.37.14.5.5.51H20c.37,0,.5-.13.5-.49V10.26c0-.37-.12-.5-.49-.5H16.77c-.39,0-.5.13-.51.52Z" fill="#162f68"/><path id="Path_749" data-name="Path 749" d="M18.39,11.57h-1a.51.51,0,0,1-.55-.47.51.51,0,0,1,.47-.55h.06q1.07,0,2.13,0A.48.48,0,0,1,20,11v.06a.48.48,0,0,1-.47.5H18.39Z" fill="#162f68"/><path id="Path_750" data-name="Path 750" d="M18.41,13.3H17.34a.5.5,0,0,1-.53-.46v0a.49.49,0,0,1,.46-.52h.05q1.08,0,2.16,0a.5.5,0,0,1,.5.51.5.5,0,0,1-.51.5h0c-.36,0-.71,0-1.06,0Z" fill="#162f68"/></g></g></g></svg>